<?xml version="1.0" encoding="UTF-8" standalone="no"?>
<!-- Created with Inkscape (http://www.inkscape.org/) -->

<svg
   width="300mm"
   height="300mm"
   viewBox="0 0 300 300"
   version="1.1"
   id="svg1"
   inkscape:version="1.3.2 (091e20e, 2023-11-25, custom)"
   sodipodi:docname="cavalry.svg"
   xml:space="preserve"
   xmlns:inkscape="http://www.inkscape.org/namespaces/inkscape"
   xmlns:sodipodi="http://sodipodi.sourceforge.net/DTD/sodipodi-0.dtd"
   xmlns="http://www.w3.org/2000/svg"
   xmlns:svg="http://www.w3.org/2000/svg"><sodipodi:namedview
     id="namedview1"
     pagecolor="#696969"
     bordercolor="#000000"
     borderopacity="0.25"
     inkscape:showpageshadow="2"
     inkscape:pageopacity="0.0"
     inkscape:pagecheckerboard="0"
     inkscape:deskcolor="#d1d1d1"
     inkscape:document-units="mm"
     inkscape:zoom="0.5"
     inkscape:cx="483"
     inkscape:cy="691"
     inkscape:window-width="1920"
     inkscape:window-height="991"
     inkscape:window-x="-9"
     inkscape:window-y="-9"
     inkscape:window-maximized="1"
     inkscape:current-layer="layer1" /><defs
     id="defs1" /><g
     inkscape:label="Warstwa 1"
     inkscape:groupmode="layer"
     id="layer1"><path
       id="path1"
       style="fill:#000000;fill-opacity:1;stroke-width:0.452157"
       d="m 65.937422,60.106116 18.410091,25.272368 -9.302551,9.302551 0.168658,83.485775 23.726445,13.13921 c 0,0 23.169175,-17.52184 36.009825,-26.65525 l 13.25779,8.34891 c -13.59557,10.97186 -73.119274,54.03074 -73.119274,54.03074 v 13.40189 H 219.59356 c 0,0 14.46901,-38.91442 14.46901,-87.40181 0,-68.050422 -48.9093,-93.711146 -86.81414,-93.460993 z m 43.329658,42.870464 c 4.9944,0 9.04331,4.04858 9.04331,9.04297 0,4.99439 -4.04891,9.04331 -9.04331,9.04331 -4.99437,0 -9.04297,-4.04892 -9.04297,-9.04331 0,-4.99439 4.0486,-9.04297 9.04297,-9.04297 z"
       sodipodi:nodetypes="ccccccccccsscsssss" /></g></svg>
