<?xml version="1.0" encoding="UTF-8" standalone="no"?>
<!-- Created with Inkscape (http://www.inkscape.org/) -->

<svg
   width="300mm"
   height="300mm"
   viewBox="0 0 300 300"
   version="1.1"
   id="svg1"
   inkscape:version="1.3.2 (091e20e, 2023-11-25, custom)"
   sodipodi:docname="ranged.svg"
   xml:space="preserve"
   xmlns:inkscape="http://www.inkscape.org/namespaces/inkscape"
   xmlns:sodipodi="http://sodipodi.sourceforge.net/DTD/sodipodi-0.dtd"
   xmlns="http://www.w3.org/2000/svg"
   xmlns:svg="http://www.w3.org/2000/svg"><sodipodi:namedview
     id="namedview1"
     pagecolor="#696969"
     bordercolor="#000000"
     borderopacity="0.25"
     inkscape:showpageshadow="2"
     inkscape:pageopacity="0.0"
     inkscape:pagecheckerboard="0"
     inkscape:deskcolor="#d1d1d1"
     inkscape:document-units="mm"
     inkscape:zoom="0.5"
     inkscape:cx="591"
     inkscape:cy="697"
     inkscape:window-width="1920"
     inkscape:window-height="991"
     inkscape:window-x="-9"
     inkscape:window-y="-9"
     inkscape:window-maximized="1"
     inkscape:current-layer="layer1" /><defs
     id="defs1" /><g
     inkscape:label="Warstwa 1"
     inkscape:groupmode="layer"
     id="layer1"><path
       id="path11"
       style="color:#000000;fill:#000000;stroke-width:0.918179;stroke-linecap:square;-inkscape-stroke:none;paint-order:markers stroke fill"
       inkscape:label="path11"
       d="m 241.47297,59.187282 -71.57529,11.783784 21.4267,21.426701 -8.73713,8.737133 C 174.4574,94.949598 165.10412,90.276576 154.923,87.548552 148.03544,85.703029 141.02973,84.8119 134.08086,84.828341 116.2355,84.87059 98.781404,90.927857 84.631666,102.15124 l -8.271186,-8.271188 -16.71746,9.252888 20.525659,20.5252 33.681641,33.68164 13.01128,-13.01127 -29.086755,-29.08676 c 10.260695,-7.57083 22.556265,-11.74767 35.166305,-12.03052 5.73183,-0.12857 11.52878,0.54756 17.22894,2.07492 7.0142,1.87944 13.50219,4.96513 19.27303,8.9924 l -52.94898,52.94898 -18.105315,-4.85112 -39.86179,39.86416 33.291151,6.79271 8.514594,31.77944 37.37123,-37.37265 -5.16664,-19.28157 53.15633,-53.1549 c 3.52972,5.38972 6.25389,11.36585 7.97226,17.77888 4.88755,18.24056 1.05651,37.47058 -9.9556,52.39525 l -27.82985,-27.83032 -12.98518,12.98517 41.34265,41.34265 0.009,-0.009 10.82817,10.82818 9.21921,-16.75114 -7.46172,-7.46172 c 15.56999,-19.655 21.15196,-45.69281 14.57137,-70.25195 -2.56775,-9.58297 -6.88226,-18.41434 -12.53442,-26.20142 l 9.31741,-9.31742 20.82412,20.42412 z" /></g></svg>
