<?xml version="1.0" encoding="UTF-8" standalone="no"?>
<!-- Created with Inkscape (http://www.inkscape.org/) -->

<svg
   width="300mm"
   height="300mm"
   viewBox="0 0 300 300"
   version="1.1"
   id="svg1"
   inkscape:version="1.3.2 (091e20e, 2023-11-25, custom)"
   sodipodi:docname="village.svg"
   xml:space="preserve"
   xmlns:inkscape="http://www.inkscape.org/namespaces/inkscape"
   xmlns:sodipodi="http://sodipodi.sourceforge.net/DTD/sodipodi-0.dtd"
   xmlns="http://www.w3.org/2000/svg"
   xmlns:svg="http://www.w3.org/2000/svg"><sodipodi:namedview
     id="namedview1"
     pagecolor="#696969"
     bordercolor="#000000"
     borderopacity="0.25"
     inkscape:showpageshadow="2"
     inkscape:pageopacity="0.0"
     inkscape:pagecheckerboard="0"
     inkscape:deskcolor="#d1d1d1"
     inkscape:document-units="mm"
     inkscape:zoom="0.3535534"
     inkscape:cx="1013.9911"
     inkscape:cy="776.40323"
     inkscape:window-width="1920"
     inkscape:window-height="991"
     inkscape:window-x="-9"
     inkscape:window-y="-9"
     inkscape:window-maximized="1"
     inkscape:current-layer="layer1" /><defs
     id="defs1" /><g
     inkscape:label="Warstwa 1"
     inkscape:groupmode="layer"
     id="layer1"><path
       id="path19"
       style="color:#000000;fill:#000000;stroke-width:0.655729;-inkscape-stroke:none;paint-order:markers stroke fill"
       d="M 150.00017,44.523093 55.487681,136.82646 H 244.51232 Z M 81.700392,146.57714 v 79.26643 H 218.29961 v -79.26643 z"
       sodipodi:nodetypes="ccccccccc" /><path
       id="path1"
       style="fill:#000000;fill-opacity:1;stroke:none;stroke-width:26.6417;stroke-linecap:square;stroke-linejoin:miter;stroke-miterlimit:6;stroke-dasharray:26.6417, 53.2834;stroke-dashoffset:11.9888;stroke-opacity:1;paint-order:stroke fill markers"
       d="M 2.9190011 -135.38453 L -45.122999 -107.6479 L -34.88899 -89.921575 C -22.28631 -97.195892 -9.6836436 -104.47035 2.9190011 -111.74462 L 2.9190011 -135.38453 z M 25.656309 -135.38453 L 25.656309 -111.74462 C 38.258829 -104.4704 50.861247 -97.195838 63.463745 -89.921575 L 73.698309 -107.64735 L 25.656309 -135.38453 z M -124.22452 29.360474 L -124.22452 84.834288 L -103.75539 73.01655 L -103.75539 29.360474 L -124.22452 29.360474 z M 132.33014 29.360474 L 132.33014 73.01655 L 152.79927 84.834288 L 152.79927 29.360474 L 132.33014 29.360474 z M -92.397282 92.71352 L -112.85586 104.52515 L -64.813863 132.26234 L -54.582074 114.54045 C -67.187146 107.26484 -79.792247 99.989133 -92.397282 92.71352 z M 120.97204 92.71352 C 108.36713 99.989079 95.762274 107.26489 83.157385 114.54045 L 93.389173 132.26234 L 141.43062 104.52515 L 120.97204 92.71352 z "
       transform="matrix(0.93092228,0,0,0.93092228,136.69945,133.25116)" /></g></svg>
